<?xml version="1.0" standalone="no"?>
<!DOCTYPE svg PUBLIC "-//W3C//DTD SVG 20010904//EN"
 "http://www.w3.org/TR/2001/REC-SVG-20010904/DTD/svg10.dtd">
<svg version="1.0" xmlns="http://www.w3.org/2000/svg"
 width="512.000000pt" height="512.000000pt" viewBox="0 0 512.000000 512.000000"
 preserveAspectRatio="xMidYMid meet">

<g transform="translate(0.000000,512.000000) scale(0.100000,-0.100000)"
fill="#000000" stroke="none">
<path d="M2330 5109 c-204 -19 -464 -77 -646 -144 -55 -20 -166 -69 -249 -110
-281 -138 -451 -260 -680 -490 -230 -229 -352 -399 -490 -680 -89 -181 -135
-304 -180 -479 -113 -445 -113 -847 0 -1292 45 -175 91 -298 180 -479 138
-281 260 -451 490 -680 229 -230 399 -352 680 -490 181 -89 304 -135 479 -180
445 -113 847 -113 1292 0 175 45 298 91 479 180 281 138 451 260 680 490 230
229 352 399 490 680 89 181 135 304 180 479 113 445 113 847 0 1292 -45 175
-91 298 -180 479 -138 281 -260 451 -490 680 -229 230 -399 352 -680 490 -181
89 -304 135 -479 180 -297 76 -595 101 -876 74z m-673 -1338 c349 -68 554
-234 610 -494 30 -141 0 -350 -68 -478 -69 -129 -219 -268 -354 -330 -56 -25
-73 -38 -68 -49 20 -49 77 -235 109 -355 41 -158 90 -274 125 -298 31 -22 71
-21 118 2 47 24 197 158 313 280 101 105 129 115 154 56 78 -186 -137 -500
-452 -658 -104 -52 -182 -70 -289 -65 -100 5 -149 24 -204 78 -82 83 -114 192
-161 548 -17 133 -39 272 -48 308 -17 65 -18 67 -65 84 -128 49 -189 148 -140
231 41 70 198 100 303 60 l55 -22 53 58 c74 80 117 170 132 278 50 355 -156
518 -602 476 -155 -15 -264 -48 -437 -132 -169 -82 -222 -97 -257 -74 -13 8
-24 24 -24 34 0 29 73 132 136 192 172 161 390 258 664 293 71 9 301 -4 397
-23z m2328 4 c192 -33 329 -94 437 -193 119 -110 167 -217 175 -387 6 -130 -9
-207 -61 -300 -37 -65 -134 -165 -205 -209 -24 -15 -39 -31 -35 -35 5 -4 35
-24 68 -46 120 -80 222 -203 265 -320 35 -93 49 -280 29 -382 -38 -193 -168
-355 -368 -457 -179 -92 -344 -127 -600 -127 -485 0 -1076 252 -1082 461 -1
39 27 70 64 70 26 0 158 -24 199 -36 14 -4 17 12 23 108 12 208 62 471 136
721 117 395 260 636 402 679 50 15 68 -1 79 -73 19 -117 -14 -352 -111 -799
-45 -209 -50 -246 -67 -499 -13 -185 -15 -275 -8 -277 89 -34 339 -54 437 -34
128 25 245 96 302 182 46 70 66 150 66 268 -1 167 -34 293 -103 390 l-24 34
-139 1 c-158 0 -221 15 -269 65 -61 64 -37 163 49 201 67 29 188 43 277 30 74
-11 74 -11 97 17 56 68 91 240 72 358 -33 206 -179 298 -475 298 -217 0 -328
-27 -555 -134 -171 -81 -231 -98 -266 -75 -31 20 -30 41 6 98 125 197 411 364
705 412 111 18 350 13 480 -10z m-2799 -496 c17 -19 19 -35 17 -140 -3 -156
-19 -246 -110 -604 l-76 -300 -7 -325 c-5 -300 -8 -329 -27 -371 -29 -64 -64
-94 -172 -147 -74 -37 -108 -47 -157 -50 -61 -4 -65 -3 -94 28 -49 53 -65 123
-64 290 0 80 6 181 13 225 36 228 124 558 215 803 143 383 260 562 394 602 41
13 47 12 68 -11z"/>
</g>
</svg>
